<svg xmlns="http://www.w3.org/2000/svg" viewBox="0 0 512 512">
  <defs>
    <linearGradient id="bg" x1="0%" y1="0%" x2="100%" y2="100%">
      <stop offset="0%" stop-color="#06b6d4"/>
      <stop offset="100%" stop-color="#8b5cf6"/>
    </linearGradient>
  </defs>
  <!-- Rounded square background -->
  <rect width="512" height="512" rx="108" fill="url(#bg)"/>
  <!-- Harmonica body -->
  <rect x="56" y="186" width="400" height="140" rx="20" fill="#1e293b" opacity="0.9"/>
  <!-- Chrome plate top -->
  <rect x="56" y="186" width="400" height="12" rx="6" fill="#94a3b8" opacity="0.4"/>
  <!-- Chrome plate bottom -->
  <rect x="56" y="314" width="400" height="12" rx="6" fill="#94a3b8" opacity="0.4"/>
  <!-- Holes -->
  <rect x="80"  y="216" width="28" height="80" rx="6" fill="#0f172a"/>
  <rect x="118" y="216" width="28" height="80" rx="6" fill="#0f172a"/>
  <rect x="156" y="216" width="28" height="80" rx="6" fill="#0f172a"/>
  <rect x="194" y="216" width="28" height="80" rx="6" fill="#0f172a"/>
  <rect x="232" y="216" width="28" height="80" rx="6" fill="#0f172a"/>
  <rect x="270" y="216" width="28" height="80" rx="6" fill="#0f172a"/>
  <rect x="308" y="216" width="28" height="80" rx="6" fill="#0f172a"/>
  <rect x="346" y="216" width="28" height="80" rx="6" fill="#0f172a"/>
  <rect x="384" y="216" width="28" height="80" rx="6" fill="#0f172a"/>
  <rect x="422" y="216" width="28" height="80" rx="6" fill="#0f172a"/>
  <!-- "H" letter subtly in center -->
  <text x="256" y="400" text-anchor="middle" font-family="system-ui,sans-serif" font-weight="800" font-size="100" fill="white" opacity="0.95">H</text>
</svg>
